<svg class="" xmlns="http://www.w3.org/2000/svg" viewBox="0 0 266.5 97.2">
  <path d="M219,14.7c-0.1,0-0.2-0.6-0.2-0.6c0.8-0.3,3.6-1.5,3.6-4.2c0-3.4-3-2.6-3-5.7c0-1.9,1.5-3.2,3-3.2
  c2.3,0,3.4,1.7,3.4,4.2C225.9,7.6,223.6,13.4,219,14.7C219,14.7,219,14.7,219,14.7"></path>
  <path d="M87,29.4c-2.8,1.8-8.4,1.8-12,2.4c-4.2,0.9-9.8,3.7-9.8,14.9c0,9.9,6.1,11.6,10.3,11.6c6,0,11.5-4.4,11.5-9.2 V29.4 M96.7,59.4c-5.3,0-8.3-3.4-9.2-8.1c-1.6,5.3-7.3,8.1-14.2,8.1c-8.2,0-16.2-3.1-16.2-12.7c0-12.8,10.9-15.2,15.7-15.7 c6.7-0.6,14.2-0.9,14.2-3.5v-9.3c0-9.8-5-12.2-9.4-12.2c-3.3,0-6.1,1.2-6.1,4.8c0,2.3,1,2.2,1,5c0,1.6-1.2,4-4.7,4 c-2.9,0-4.3-2.7-4.3-4.5c0-5.8,5.4-10.1,14-10.1c12.5,0,17.6,6.7,17.5,21.9v26c0.1,2.8,1.4,4,3.3,4c2.1,0,3.8-1.8,4.3-3.1 c0-0.1,0-0.1,0.1-0.1c0.2,0,0.5,0.3,0.4,0.4C102.6,56.8,100.6,59.4,96.7,59.4"></path>
  <path d="M86.7,81h6.3c1.7,0,3.1,0.5,4,1.4c0.6,0.6,1,1.4,1,2.4v0c0,2.1-1.4,3.1-2.6,3.6c1.8,0.5,3.5,1.5,3.5,3.7v0 c0,2.6-2.2,4.2-5.5,4.2h-6.6V81z M92.9,88.1c2.3,0,3.9-1.1,3.9-3.1v0c0-1.7-1.4-2.8-3.8-2.8h-5.2v6H92.9z M93.4,95.3 c2.6,0,4.3-1.2,4.3-3.1v0c0-1.9-1.6-3-4.7-3h-5.2v6.1H93.4z M105.1,81h6.4c1.9,0,3.4,0.6,4.3,1.5c0.7,0.7,1.2,1.7,1.2,2.8v0 c0,2.6-1.9,4-4.5,4.4l5,6.5h-1.4l-4.9-6.3h0h-5v6.3h-1.1V81z M111.4,88.9c2.6,0,4.5-1.3,4.5-3.5v0c0-2.1-1.6-3.3-4.4-3.3h-5.2v6.9 H111.4z M124.1,81h1.1v15.3h-1.1V81z M133,81h5.1c4.8,0,8.1,3.3,8.1,7.6v0c0,4.3-3.3,7.7-8.1,7.7H133V81z M138.1,95.3 c4.3,0,7-2.9,7-6.6v0c0-3.6-2.7-6.6-7-6.6h-4v13.2H138.1z M157.1,80.9h1.1l7.1,15.4h-1.2l-1.9-4.3h-9l-1.9,4.3H150L157.1,80.9z M161.6,91l-4-8.9l-4,8.9H161.6z M171.6,81h1.1v14.3h9v1h-10.1V81z"></path>
  <polygon points="261,6.4 260.1,6.4 260.1,6.1 262.4,6.1 262.4,6.4 261.4,6.4 261.4,9 261,9 "></polygon>
  <polygon points="263,6.1 263.3,6.1 264.4,7.7 265.4,6.1 265.7,6.1 265.7,9 265.4,9 265.4,6.6 264.4,8.2 264.3,8.2 263.3,6.6 263.3,9 263,9 "></polygon>
  <path d="M30.3,58.4h-23c-0.1,0-0.1-0.9,0-0.9h6.3c0.3,0,0.4-0.1,0.4-0.3V7.3C14.1,7,13.9,7,13.7,7H7.3 c-0.1,0-0.1-0.9,0-0.9h23c12.9,0,23.4,11.7,23.4,26.2C53.7,46.6,43.2,58.4,30.3,58.4 M39.2,9.6c-2.4-2-5.7-2.7-8.9-2.7h-7.7 c-0.4,0-0.5,0.1-0.5,0.3v49.9c0,0.2,0.1,0.3,0.5,0.3h7.7c3.2,0,6.6-0.6,8.9-2.7c3.9-3.4,5.9-8.6,5.9-22.6 C45.1,20.1,43.1,13,39.2,9.6"></path>
  <path d="M166.7,57.5h-6.3c-0.3,0-0.4-0.1-0.4-0.3V7.3c0-0.2,0.1-0.3,0.4-0.3h6.3c0.1,0,0.1-0.9,0-0.9h-32.6 c-0.1,0-0.1,0.9,0,0.9h6.6c0.4,0,0.5,0.2-0.5,3.1l-13,38.5l-17-41.3C110.1,7,110.3,7,110.6,7h7.4c0.1,0,0.1-0.9,0-0.9H94.3 c-0.1,0-0.1,0.9,0,0.9h6.6c0.4,0,0.5,0.1,0.6,0.3l22,52.2c0.1,0.2,0.8,0.3,0.8,0l16.8-49.4c1-2.8,1.2-3.1,1.7-3.1h8.6 c0.2,0,0.4,0.1,0.4,0.3v49.9c0,0.2-0.2,0.3-0.4,0.3h-6.3c-0.1,0-0.1,0.9,0,0.9h21.6C166.8,58.4,166.8,57.5,166.7,57.5"></path>
  <path d="M194.4,58.4h-23c-0.1,0-0.1-0.9,0-0.9h6.3c0.3,0,0.4-0.1,0.4-0.3V7.3c0-0.2-0.1-0.3-0.4-0.3h-6.3 c-0.1,0-0.1-0.9,0-0.9h23c12.9,0,23.4,11.7,23.4,26.2C217.8,46.6,207.3,58.4,194.4,58.4 M203.3,9.6c-2.4-2-5.7-2.7-8.9-2.7h-7.7 c-0.4,0-0.5,0.1-0.5,0.3v49.9c0,0.2,0.1,0.3,0.5,0.3h7.7c3.2,0,6.6-0.6,8.9-2.7c3.9-3.4,5.9-8.6,5.9-22.6 C209.2,20.1,207.2,13,203.3,9.6"></path>
  <path d="M242.8,59.6c-5.5,0-8.6-3-11.6-3c-2,0-3.6,1.5-3.9,2.9c0,0.1-0.7,0.1-0.7,0V43c0-0.2,0.7-0.2,0.7,0 c0,5.9,6.2,15.8,15.5,15.8c8.3,0,13-5.5,13-10.2c0-7.1-4.8-9.4-15.8-13.4c-6.8-2.6-12.1-6.3-12.1-15c0-8.2,6.2-15.3,13.4-15.3 c4.3, 0,6.2,2,9,2c2.1,0,2.8-1,2.9-1.8c0-0.2,0.7-0.2,0.7,0v12.4c0,0.1-0.7,0.1-0.7,0c0-7-6-11.7-11.9-11.7c-5.6,0-10,4.6-10,9.6 c0,5.3,4.3,8.8,13.3,12.2c9.2,3.4,15.1,6.9,15.1,15.9C259.8,49.9,254.1,59.6,242.8,59.6"></path>
</svg>
